<svg width="210" height="83" viewBox="0 0 210 83" fill="none" xmlns="http://www.w3.org/2000/svg">
<g clip-path="url(#clip0_2215_1504)">
<path d="M83.0403 8.28246H87.8004C89.2234 8.28246 90.4262 8.6696 91.1546 9.39339C91.7136 9.98252 92.0185 10.6726 92.0185 11.5648V11.6153C92.0185 13.1133 91.1885 13.9044 90.2737 14.3926C91.6458 14.9144 92.5606 15.756 92.5606 17.4224V17.5065C92.5606 19.7957 90.7141 20.9908 87.936 20.9908H83.0572V8.26562L83.0403 8.28246ZM89.3928 12.0192C89.3928 11.0934 88.7321 10.6053 87.5972 10.6053H85.6152V13.4836H87.4616C88.6305 13.4836 89.3759 13.0123 89.3759 12.0529L89.3928 12.0192ZM87.9529 15.6887H85.6321V18.668H88.0037C89.1895 18.668 89.9518 18.163 89.9518 17.1699C89.9518 16.2441 89.2742 15.6718 87.9529 15.6718V15.6887Z" fill="#1D1D1B"/>
<path d="M93.8311 18.2297V18.1287C93.8311 15.991 95.2371 15.0147 97.253 15.0147C98.0831 15.0147 98.6929 15.1831 99.3028 15.4187V15.1326C99.3028 14.0048 98.6252 13.4157 97.4563 13.4157C96.5415 13.4157 95.8131 13.7018 95.2033 13.9543L94.4918 11.9344C95.4404 11.4631 96.4399 11.1602 97.8459 11.1602C99.1842 11.1602 100.184 11.5305 100.827 12.1533C101.505 12.8266 101.827 13.8365 101.827 15.0989V21.007H99.2858V19.9466C98.6929 20.7041 97.8967 21.1754 96.7448 21.1754C95.1355 21.1754 93.8311 20.0981 93.8311 18.2129V18.2297ZM99.3366 17.8089V16.9841C98.947 16.799 98.4219 16.6811 97.8967 16.6811C96.9481 16.6811 96.3382 17.1524 96.3382 18.0446V18.0782C96.3382 18.8862 96.8465 19.2733 97.6088 19.2901C98.6082 19.307 99.3536 18.6842 99.3536 17.7921L99.3366 17.8089Z" fill="#1D1D1B"/>
<path d="M103.86 11.2613H106.451V12.5742C107.01 11.8 107.739 11.0762 108.976 11.0762C110.805 11.0762 111.872 12.3554 111.872 14.3753V21.0072H109.28V15.1328C109.28 13.9882 108.772 13.399 107.891 13.399C107.01 13.399 106.468 13.9882 106.468 15.1328V21.0072H103.877V11.2613H103.86Z" fill="#1D1D1B"/>
<path d="M113.99 22.9773L114.803 20.9743C115.582 21.4119 116.565 21.6813 117.581 21.6813C119.207 21.6813 120.004 20.9406 120.004 19.3752V18.7524C119.343 19.6109 118.581 20.2842 117.259 20.2842C115.311 20.2842 113.6 18.7693 113.6 15.7058V15.6553C113.6 12.575 115.345 11.0938 117.259 11.0938C118.598 11.0938 119.36 11.767 119.987 12.5245V11.2621H122.578V19.2237C122.578 20.7723 122.189 21.8832 121.46 22.6239C120.63 23.4318 119.394 23.7853 117.734 23.7853C116.361 23.7853 115.142 23.4991 114.007 22.9605L113.99 22.9773ZM120.004 15.6721C120.004 14.2246 119.174 13.2819 118.089 13.2819C117.005 13.2819 116.192 14.2077 116.192 15.6385C116.192 17.1365 117.005 18.0455 118.089 18.0455C119.174 18.0455 120.004 17.1197 120.004 15.6553V15.6721Z" fill="#1D1D1B"/>
<path d="M124.781 7.87891H127.372V21.0081H124.781V7.87891Z" fill="#1D1D1B"/>
<path d="M129.1 18.2297V18.1287C129.1 15.991 130.506 15.0147 132.522 15.0147C133.352 15.0147 133.962 15.1831 134.572 15.4187V15.1326C134.572 14.0048 133.894 13.4157 132.726 13.4157C131.811 13.4157 131.082 13.7018 130.472 13.9543L129.761 11.9344C130.71 11.4631 131.709 11.1602 133.115 11.1602C134.453 11.1602 135.453 11.5305 136.097 12.1533C136.774 12.8266 137.096 13.8365 137.096 15.0989V21.007H134.555V19.9466C133.962 20.7041 133.166 21.1754 132.014 21.1754C130.405 21.1754 129.1 20.0981 129.1 18.2129V18.2297ZM134.606 17.8089V16.9841C134.216 16.799 133.691 16.6811 133.166 16.6811C132.217 16.6811 131.607 17.1524 131.607 18.0446V18.0782C131.607 18.8862 132.116 19.2733 132.878 19.2901C133.877 19.307 134.623 18.6842 134.623 17.7921L134.606 17.8089Z" fill="#1D1D1B"/>
<path d="M138.79 16.2775V15.9913C138.79 12.6585 140.569 11.0763 142.517 11.0763C143.838 11.0763 144.601 11.7833 145.177 12.507V7.86133H147.768V20.9905H145.177V19.6439C144.617 20.4687 143.821 21.1757 142.517 21.1757C140.569 21.1757 138.79 19.5934 138.79 16.2606V16.2775ZM145.21 16.227V16.0418C145.21 14.3923 144.363 13.3318 143.296 13.3318C142.229 13.3318 141.399 14.3923 141.399 16.0418V16.227C141.399 17.8765 142.229 18.937 143.296 18.937C144.363 18.937 145.21 17.8765 145.21 16.227Z" fill="#1D1D1B"/>
<path d="M149.496 16.2437V16.0754C149.496 13.1802 151.309 11.0762 153.782 11.0762C156.577 11.0762 157.949 13.3485 157.949 16.2605C157.949 16.412 157.949 16.715 157.932 17.1021H152.071C152.291 18.3982 153.104 19.0715 154.189 19.0715C155.002 19.0715 155.612 18.7012 156.238 18.1121L157.577 19.6775C156.679 20.6537 155.544 21.2429 154.087 21.2429C151.495 21.2429 149.496 19.2903 149.496 16.2605V16.2437ZM155.442 15.3852C155.341 14.0387 154.748 13.197 153.782 13.197C152.816 13.197 152.207 14.005 152.054 15.3852H155.442Z" fill="#1D1D1B"/>
<path d="M158.932 19.8461L160.067 18.0282C160.948 18.7015 161.879 19.1223 162.676 19.1223C163.404 19.1223 163.726 18.7688 163.726 18.3817V18.348C163.726 17.7925 162.997 17.5401 161.93 17.0856C160.541 16.4796 159.355 15.7895 159.355 14.1399V14.1063C159.355 12.2379 160.812 11.127 162.726 11.127C163.794 11.127 164.979 11.4973 165.962 12.1874L164.912 14.0389C164.183 13.5676 163.37 13.1973 162.676 13.1973C162.049 13.1973 161.727 13.5003 161.727 13.8874V13.9211C161.727 14.4261 162.455 14.7291 163.506 15.2004C164.929 15.8737 166.098 16.5806 166.098 18.1292V18.1628C166.098 20.1827 164.59 21.1927 162.642 21.1927C161.49 21.1927 160.118 20.8055 158.932 19.8461Z" fill="#1D1D1B"/>
<path d="M167.741 7.87891H170.333V12.5751C170.892 11.8008 171.62 11.077 172.857 11.077C174.686 11.077 175.753 12.3563 175.753 14.3762V21.0081H173.162V15.1336C173.162 13.989 172.653 13.3999 171.772 13.3999C170.892 13.3999 170.349 13.989 170.349 15.1336V21.0081H167.758V7.87891H167.741Z" fill="#1D1D1B"/>
<path d="M83.0403 25.8887H85.6999V38.6139H83.0403V25.8887Z" fill="#1D1D1B"/>
<path d="M88.1562 28.8687H90.748V30.1817C91.307 29.4074 92.0355 28.6836 93.2721 28.6836C95.1016 28.6836 96.1688 29.9628 96.1688 31.9827V38.6146H93.577V32.7402C93.577 31.5956 93.0688 31.0064 92.1879 31.0064C91.307 31.0064 90.765 31.5956 90.765 32.7402V38.6146H88.1731V28.8687H88.1562Z" fill="#1D1D1B"/>
<path d="M97.1852 28.8672H99.8957L101.725 35.3476L103.572 28.8672H106.214L102.928 38.6804H100.506L97.1852 28.8672Z" fill="#1D1D1B"/>
<path d="M106.706 33.8667V33.6984C106.706 30.8033 108.518 28.6992 110.991 28.6992C113.787 28.6992 115.159 30.9716 115.159 33.8836C115.159 34.0351 115.159 34.338 115.142 34.7252H109.28C109.501 36.0213 110.297 36.6946 111.398 36.6946C112.211 36.6946 112.821 36.3242 113.448 35.7351L114.786 37.3005C113.888 38.2768 112.753 38.8659 111.296 38.8659C108.704 38.8659 106.706 36.9134 106.706 33.8836V33.8667ZM112.652 33.0083C112.55 31.6617 111.957 30.8201 110.991 30.8201C110.026 30.8201 109.416 31.628 109.264 33.0083H112.652Z" fill="#1D1D1B"/>
<path d="M116.141 37.4515L117.276 35.6337C118.157 36.307 119.089 36.7278 119.885 36.7278C120.613 36.7278 120.935 36.3743 120.935 35.9871V35.9535C120.935 35.398 120.207 35.1455 119.14 34.6911C117.75 34.0851 116.565 33.395 116.565 31.7454V31.7117C116.565 29.8434 118.022 28.7324 119.936 28.7324C121.003 28.7324 122.189 29.1027 123.171 29.7929L122.121 31.6444C121.393 31.1731 120.579 30.8028 119.885 30.8028C119.258 30.8028 118.936 31.1058 118.936 31.4929V31.5266C118.936 32.0315 119.665 32.3345 120.715 32.8058C122.138 33.4791 123.307 34.1861 123.307 35.7347V35.7683C123.307 37.7882 121.799 38.7981 119.851 38.7981C118.699 38.7981 117.327 38.411 116.141 37.4515Z" fill="#1D1D1B"/>
<path d="M125.187 36.1902V31.0563H124.205V28.8681H125.187V26.377H127.779V28.8681H129.727V31.0563H127.779V35.6515C127.779 36.2238 128.033 36.4932 128.592 36.4932C128.999 36.4932 129.371 36.3922 129.71 36.2238V38.2774C129.202 38.5635 128.575 38.7823 127.796 38.7823C126.288 38.7823 125.204 38.1932 125.204 36.1733L125.187 36.1902Z" fill="#1D1D1B"/>
<path d="M131.455 28.8687H134.047V30.1817C134.64 29.3569 135.368 28.6836 136.588 28.6836C137.723 28.6836 138.553 29.2222 139.01 30.0975C139.722 29.2391 140.603 28.6836 141.788 28.6836C143.533 28.6836 144.702 29.8114 144.702 31.9491V38.5978H142.127V32.7233C142.127 31.5956 141.636 30.9896 140.772 30.9896C139.908 30.9896 139.383 31.5956 139.383 32.7233V38.5978H136.791V32.7233C136.791 31.5956 136.317 30.9896 135.453 30.9896C134.589 30.9896 134.064 31.5956 134.064 32.7233V38.5978H131.472V28.8519L131.455 28.8687Z" fill="#1D1D1B"/>
<path d="M146.396 33.8667V33.6984C146.396 30.8033 148.209 28.6992 150.682 28.6992C153.477 28.6992 154.849 30.9716 154.849 33.8836C154.849 34.0351 154.849 34.338 154.832 34.7252H148.971C149.191 36.0213 149.987 36.6946 151.089 36.6946C151.902 36.6946 152.512 36.3242 153.138 35.7351L154.477 37.3005C153.579 38.2768 152.444 38.8659 150.987 38.8659C148.395 38.8659 146.396 36.9134 146.396 33.8836V33.8667ZM152.342 33.0083C152.241 31.6617 151.648 30.8201 150.682 30.8201C149.716 30.8201 149.107 31.628 148.954 33.0083H152.342Z" fill="#1D1D1B"/>
<path d="M156.594 28.8687H159.186V30.1817C159.745 29.4074 160.473 28.6836 161.71 28.6836C163.54 28.6836 164.607 29.9628 164.607 31.9827V38.6146H162.015V32.7402C162.015 31.5956 161.507 31.0064 160.626 31.0064C159.745 31.0064 159.203 31.5956 159.203 32.7402V38.6146H156.611V28.8687H156.594Z" fill="#1D1D1B"/>
<path d="M167.046 36.1902V31.0563H166.064V28.8681H167.046V26.377H169.638V28.8681H171.586V31.0563H169.638V35.6515C169.638 36.2238 169.892 36.4932 170.451 36.4932C170.858 36.4932 171.23 36.3922 171.569 36.2238V38.2774C171.061 38.5635 170.434 38.7823 169.655 38.7823C168.147 38.7823 167.063 38.1932 167.063 36.1733L167.046 36.1902Z" fill="#1D1D1B"/>
<path d="M83.0403 43.4609H87.1737C90.8835 43.4609 93.289 46.0026 93.289 49.7394V49.9077C93.289 53.6445 90.8835 56.203 87.1737 56.203H83.0403V43.4778V43.4609ZM85.6999 45.8511V53.8128H87.1567C89.1726 53.8128 90.5447 52.4157 90.5447 49.8909V49.8067C90.5447 47.2819 89.1726 45.868 87.1567 45.868H85.6999V45.8511Z" fill="#1D1D1B"/>
<path d="M94.7798 51.4214V51.2531C94.7798 48.3579 96.5924 46.2539 99.0656 46.2539C101.861 46.2539 103.233 48.5263 103.233 51.4383C103.233 51.5897 103.233 51.8927 103.216 52.2799H97.3547C97.5749 53.576 98.388 54.2492 99.4722 54.2492C100.285 54.2492 100.895 53.8789 101.522 53.2898L102.86 54.8552C101.962 55.8315 100.827 56.4206 99.3705 56.4206C96.7787 56.4206 94.7798 54.4681 94.7798 51.4383V51.4214ZM100.726 50.5798C100.624 49.2332 100.031 48.3916 99.0656 48.3916C98.1 48.3916 97.4902 49.1996 97.3377 50.5798H100.726Z" fill="#1D1D1B"/>
<path d="M103.877 46.4395H106.587L108.417 52.9199L110.263 46.4395H112.906L109.619 56.2527H107.197L103.877 46.4395Z" fill="#1D1D1B"/>
<path d="M113.397 51.4214V51.2531C113.397 48.3579 115.209 46.2539 117.683 46.2539C120.478 46.2539 121.85 48.5263 121.85 51.4383C121.85 51.5897 121.85 51.8927 121.833 52.2799H115.972C116.192 53.576 116.988 54.2492 118.089 54.2492C118.902 54.2492 119.512 53.8789 120.139 53.2898L121.477 54.8552C120.58 55.8315 119.445 56.4206 117.988 56.4206C115.396 56.4206 113.397 54.4681 113.397 51.4383V51.4214ZM119.343 50.5798C119.241 49.2332 118.648 48.3916 117.683 48.3916C116.717 48.3916 116.107 49.1996 115.955 50.5798H119.343Z" fill="#1D1D1B"/>
<path d="M123.68 43.0566H126.271V56.1858H123.68V43.0566Z" fill="#1D1D1B"/>
<path d="M128.135 51.4383V51.2363C128.135 48.3411 130.117 46.2539 132.759 46.2539C135.402 46.2539 137.35 48.3074 137.35 51.2194V51.4214C137.35 54.3166 135.385 56.4038 132.742 56.4038C130.1 56.4038 128.135 54.3502 128.135 51.4383ZM134.792 51.4046V51.2699C134.792 49.6877 133.979 48.4926 132.742 48.4926C131.506 48.4926 130.693 49.6709 130.693 51.2531V51.3878C130.693 52.9532 131.523 54.1651 132.759 54.1651C133.996 54.1651 134.792 52.9868 134.792 51.4046Z" fill="#1D1D1B"/>
<path d="M139.112 46.4391H141.704V47.7856C142.263 46.9609 143.059 46.2539 144.363 46.2539C146.311 46.2539 148.09 47.8361 148.09 51.1689V51.4551C148.09 54.7879 146.311 56.3701 144.363 56.3701C143.042 56.3701 142.263 55.6632 141.704 54.9394V58.9455H139.112V46.4559V46.4391ZM145.498 51.4046V51.2194C145.498 49.5699 144.668 48.5094 143.601 48.5094C142.534 48.5094 141.687 49.5699 141.687 51.2194V51.4046C141.687 53.0542 142.534 54.1146 143.601 54.1146C144.668 54.1146 145.498 53.0542 145.498 51.4046Z" fill="#1D1D1B"/>
<path d="M149.869 46.4391H152.461V47.752C153.054 46.9272 153.782 46.2539 155.002 46.2539C156.137 46.2539 156.967 46.7925 157.424 47.6678C158.136 46.8094 159.017 46.2539 160.202 46.2539C161.947 46.2539 163.116 47.3817 163.116 49.5194V56.1681H160.541V50.2937C160.541 49.1659 160.05 48.5599 159.186 48.5599C158.322 48.5599 157.797 49.1659 157.797 50.2937V56.1681H155.205V50.2937C155.205 49.1659 154.731 48.5599 153.867 48.5599C153.003 48.5599 152.478 49.1659 152.478 50.2937V56.1681H149.886V46.4222L149.869 46.4391Z" fill="#1D1D1B"/>
<path d="M164.81 51.4214V51.2531C164.81 48.3579 166.623 46.2539 169.096 46.2539C171.891 46.2539 173.263 48.5263 173.263 51.4383C173.263 51.5897 173.263 51.8927 173.246 52.2799H167.385C167.605 53.576 168.418 54.2492 169.502 54.2492C170.316 54.2492 170.925 53.8789 171.552 53.2898L172.89 54.8552C171.993 55.8315 170.858 56.4206 169.401 56.4206C166.809 56.4206 164.81 54.4681 164.81 51.4383V51.4214ZM170.756 50.5798C170.654 49.2332 170.061 48.3916 169.096 48.3916C168.13 48.3916 167.52 49.1996 167.368 50.5798H170.756Z" fill="#1D1D1B"/>
<path d="M175.008 46.4391H177.6V47.752C178.159 46.9777 178.887 46.2539 180.124 46.2539C181.953 46.2539 183.021 47.5332 183.021 49.553V56.185H180.429V50.3105C180.429 49.1659 179.921 48.5768 179.04 48.5768C178.159 48.5768 177.617 49.1659 177.617 50.3105V56.185H175.025V46.4391H175.008Z" fill="#1D1D1B"/>
<path d="M185.46 53.7624V48.6286H184.478V46.4404H185.46V43.9492H188.052V46.4404H190V48.6286H188.052V53.2238C188.052 53.7961 188.306 54.0654 188.865 54.0654C189.272 54.0654 189.644 53.9644 189.983 53.7961V55.8496C189.475 56.1358 188.848 56.3546 188.069 56.3546C186.561 56.3546 185.477 55.7655 185.477 53.7456L185.46 53.7624Z" fill="#1D1D1B"/>
<path d="M86.9027 62.4297H89.4267L94.0175 75.2391H91.2732L90.3245 72.4786H85.9201L84.9884 75.2391H82.3119L86.9027 62.4297ZM89.5284 70.1389L88.1393 65.9981L86.7333 70.1389H89.5284Z" fill="#1D1D1B"/>
<path d="M95.2372 72.1261V65.4941H97.8121V71.3686C97.8121 72.5132 98.3203 73.1023 99.2011 73.1023C100.082 73.1023 100.624 72.5132 100.624 71.3686V65.4941H103.216V75.24H100.624V73.9271C100.082 74.7014 99.3367 75.4252 98.117 75.4252C96.2705 75.4252 95.2202 74.1459 95.2202 72.1261H95.2372Z" fill="#1D1D1B"/>
<path d="M105.757 72.7996V67.6657H104.774V65.4775H105.757V62.9863H108.349V65.4775H110.297V67.6657H108.349V72.2609C108.349 72.8332 108.603 73.1025 109.162 73.1025C109.568 73.1025 109.941 73.0015 110.28 72.8332V74.8868C109.772 75.1729 109.145 75.3917 108.366 75.3917C106.858 75.3917 105.774 74.8026 105.774 72.7827L105.757 72.7996Z" fill="#1D1D1B"/>
<path d="M112.042 62.0938H114.634V66.79C115.193 66.0157 115.921 65.2919 117.158 65.2919C118.987 65.2919 120.054 66.5711 120.054 68.591V75.2229H117.463V69.3485C117.463 68.2039 116.954 67.6147 116.073 67.6147C115.193 67.6147 114.651 68.2039 114.651 69.3485V75.2229H112.059V62.0938H112.042Z" fill="#1D1D1B"/>
<path d="M121.731 70.4754V70.2734C121.731 67.3782 123.713 65.291 126.356 65.291C128.999 65.291 130.947 67.3446 130.947 70.2565V70.4585C130.947 73.3537 128.982 75.4409 126.339 75.4409C123.696 75.4409 121.731 73.3873 121.731 70.4754ZM128.389 70.4417V70.307C128.389 68.7248 127.576 67.5297 126.339 67.5297C125.103 67.5297 124.289 68.708 124.289 70.2902V70.4249C124.289 71.9903 125.119 73.2022 126.356 73.2022C127.593 73.2022 128.389 72.0239 128.389 70.4417Z" fill="#1D1D1B"/>
<path d="M132.709 65.4779H135.3V67.2117C135.775 66.0334 136.571 65.2423 137.96 65.3264V68.1206H137.858C136.266 68.1206 135.317 69.0969 135.317 71.1336V75.2238H132.726V65.4779H132.709Z" fill="#1D1D1B"/>
<path d="M139.502 62.0938H142.212V64.4334H139.502V62.0938ZM139.552 65.477H142.144V75.2229H139.552V65.477Z" fill="#1D1D1B"/>
<path d="M144.787 72.7996V67.6657H143.804V65.4775H144.787V62.9863H147.379V65.4775H149.327V67.6657H147.379V72.2609C147.379 72.8332 147.633 73.1025 148.192 73.1025C148.598 73.1025 148.971 73.0015 149.31 72.8332V74.8868C148.802 75.1729 148.175 75.3917 147.396 75.3917C145.888 75.3917 144.804 74.8026 144.804 72.7827L144.787 72.7996Z" fill="#1D1D1B"/>
<path d="M156.628 65.4778H159.271L156.052 75.3583C155.391 77.3109 154.646 78.0515 153.105 78.0515C152.342 78.0515 151.614 77.8327 151.004 77.4624L151.715 75.5266C152.02 75.7118 152.427 75.8465 152.783 75.8465C153.189 75.8465 153.443 75.695 153.63 75.2237L150.292 65.4609H153.003L154.849 71.9245L156.645 65.4609L156.628 65.4778Z" fill="#1D1D1B"/>
<path d="M74.3839 83V0L0 0V83H74.3839Z" fill="#A50321"/>
<path d="M16.957 56.9431L35.6589 75.1219H31.3731L16.1609 67.3454L16.957 56.9431ZM24.4954 61.5214L38.4879 75.1219H42.977L25.2407 48.0724L24.4954 61.5046V61.5214ZM32.7452 55.9163L45.3486 75.1219H49.6853L33.7616 37.3671L32.7621 55.9163H32.7452ZM40.7917 48.9477L51.8367 75.1219H55.9362L42.8923 27.7895L40.7917 48.9477ZM49.2279 43.3931L57.9859 75.1051H61.069L52.3788 17.303L49.2279 43.3931ZM61.7297 7.87695L57.6302 38.9998L63.068 75.1219H66.4729L61.7297 7.87695ZM7.92798 75.1219H27.0364L8.7411 65.78L7.92798 75.1219Z" fill="white"/>
</g>
<defs>
<clipPath id="clip0_2215_1504">
<rect width="190" height="83" fill="white"/>
</clipPath>
</defs>
</svg>
